<svg width="17" height="14" viewBox="0 0 17 14" fill="none" xmlns="http://www.w3.org/2000/svg">
<path d="M16.2193 1.26502C16.2191 0.943403 16.0943 0.634376 15.871 0.402891C15.6477 0.171405 15.3434 0.0354874 15.022 0.023704V0.0214081H2.22345V0.0248521C2.20125 0.0237041 2.17925 0.0214081 2.15687 0.0214081C1.89967 0.0215758 1.64886 0.101481 1.43897 0.250118C1.22907 0.398756 1.07043 0.608813 0.984876 0.851361C0.899327 1.09391 0.891082 1.35702 0.961278 1.60444C1.03147 1.85187 1.17666 2.07145 1.37683 2.23294L7.14338 7.99929L7.14319 11.5578V11.5872H7.14606C7.15089 11.697 7.18349 11.8037 7.24081 11.8974C7.29813 11.9911 7.3783 12.0687 7.4738 12.1229L7.47208 12.126L8.97819 12.9956C8.99082 13.0044 9.00478 13.0107 9.01799 13.0185L9.02334 13.0216V13.0214C9.11939 13.0769 9.22959 13.1111 9.3486 13.1111C9.43443 13.1112 9.51943 13.0943 9.59873 13.0614C9.67804 13.0286 9.7501 12.9805 9.81079 12.9198C9.87149 12.8591 9.91963 12.787 9.95247 12.7077C9.9853 12.6284 10.0022 12.5434 10.0022 12.4576C10.0022 12.4403 9.99834 12.4241 9.99719 12.4072H10.0022V8.00465L15.8217 2.1853L15.816 2.17956C15.9431 2.06352 16.0446 1.92226 16.114 1.76479C16.1834 1.60733 16.2193 1.43712 16.2193 1.26502ZM5.17005 2.50864H5.17273L5.17292 2.51151L5.17005 2.50864Z" fill="#F53030"/>
</svg>
