<svg width="14" height="14" viewBox="0 0 14 14" fill="none" xmlns="http://www.w3.org/2000/svg">
<path d="M11.9274 11.9303H9.85425V8.68175C9.85425 7.90708 9.8385 6.91017 8.77392 6.91017C7.693 6.91017 7.52792 7.75308 7.52792 8.62458V11.9303H5.45475V5.25H7.44625V6.16058H7.47308C7.75133 5.63558 8.428 5.08142 9.43892 5.08142C11.5395 5.08142 11.928 6.46392 11.928 8.2635V11.9303H11.9274ZM3.11325 4.33592C2.9551 4.33599 2.79848 4.30488 2.65236 4.24436C2.50625 4.18383 2.3735 4.09509 2.26172 3.9832C2.14994 3.87132 2.06133 3.73848 2.00095 3.59231C1.94056 3.44614 1.9096 3.28949 1.90983 3.13133C1.90995 2.8932 1.98067 2.66046 2.11307 2.46253C2.24546 2.26459 2.43357 2.11036 2.65362 2.01934C2.87367 1.92832 3.11576 1.9046 3.34929 1.95117C3.58282 1.99774 3.7973 2.11251 3.9656 2.28097C4.1339 2.44944 4.24847 2.66402 4.29481 2.8976C4.34116 3.13118 4.3172 3.37325 4.22596 3.59321C4.13473 3.81316 3.98032 4.00113 3.78225 4.13333C3.58419 4.26553 3.35138 4.33603 3.11325 4.33592ZM4.15275 11.9303H2.07375V5.25H4.15275V11.9303ZM12.9646 0H1.03308C0.462 0 0 0.4515 0 1.00858V12.9914C0 13.5491 0.462 14 1.03308 14H12.9628C13.5333 14 14 13.5491 14 12.9914V1.00858C14 0.4515 13.5333 0 12.9628 0H12.9646Z" fill="#FEFEFE"/>
</svg>
