<svg width="195" height="65" viewBox="0 0 195 65" fill="none" xmlns="http://www.w3.org/2000/svg">
<path d="M19.823 38.0353C20.5683 38.0353 21.1847 38.279 21.672 38.7663C22.188 39.225 22.446 39.827 22.446 40.5723C22.446 41.289 22.188 41.891 21.672 42.3783C21.1847 42.837 20.5683 43.0663 19.823 43.0663H5.848C5.10267 43.0663 4.472 42.8226 3.956 42.3353C3.46867 41.8193 3.225 41.1886 3.225 40.4433V15.5893C3.225 14.844 3.483 14.2276 3.999 13.7403C4.515 13.2243 5.17433 12.9663 5.977 12.9663C6.69367 12.9663 7.31 13.2243 7.826 13.7403C8.342 14.2276 8.6 14.844 8.6 15.5893V38.0353H19.823ZM30.5095 40.4433C30.5095 41.1886 30.2658 41.8193 29.7785 42.3353C29.2912 42.8226 28.6748 43.0663 27.9295 43.0663C27.1842 43.0663 26.5678 42.8226 26.0805 42.3353C25.5932 41.8193 25.3495 41.1886 25.3495 40.4433V22.6843C25.3495 21.939 25.5932 21.3226 26.0805 20.8353C26.5678 20.3193 27.1842 20.0613 27.9295 20.0613C28.6748 20.0613 29.2912 20.3193 29.7785 20.8353C30.2658 21.3226 30.5095 21.939 30.5095 22.6843V40.4433ZM27.8865 17.2663C26.9118 17.2663 26.2238 17.1086 25.8225 16.7933C25.4212 16.478 25.2205 15.919 25.2205 15.1163V14.2993C25.2205 13.4966 25.4355 12.9376 25.8655 12.6223C26.2955 12.307 26.9835 12.1493 27.9295 12.1493C28.9328 12.1493 29.6352 12.307 30.0365 12.6223C30.4378 12.9376 30.6385 13.4966 30.6385 14.2993V15.1163C30.6385 15.9476 30.4235 16.521 29.9935 16.8363C29.5922 17.123 28.8898 17.2663 27.8865 17.2663ZM53.5716 19.6313C54.317 19.6313 54.9333 19.875 55.4206 20.3623C55.908 20.8496 56.1516 21.4803 56.1516 22.2543V41.3893C56.1516 44.8866 55.0623 47.4666 52.8836 49.1293C50.7336 50.8206 47.996 51.6663 44.6706 51.6663C43.8106 51.6663 42.621 51.523 41.1016 51.2363C39.611 50.9496 38.5503 50.663 37.9196 50.3763C36.515 49.7743 35.8126 48.943 35.8126 47.8823C35.8126 47.6816 35.8556 47.4523 35.9416 47.1943C36.1136 46.5636 36.4003 46.0763 36.8016 45.7323C37.2316 45.417 37.6903 45.2593 38.1776 45.2593C38.4643 45.2593 38.7366 45.3023 38.9946 45.3883C39.1093 45.417 39.8116 45.675 41.1016 46.1623C42.4203 46.6783 43.61 46.9363 44.6706 46.9363C46.792 46.9363 48.3686 46.5063 49.4006 45.6463C50.4613 44.815 50.9916 43.6253 50.9916 42.0773V40.0133C50.361 40.902 49.4006 41.7046 48.1106 42.4213C46.8493 43.138 45.4876 43.4963 44.0256 43.4963C42.019 43.4963 40.1843 42.9946 38.5216 41.9913C36.8876 40.9593 35.5976 39.5403 34.6516 37.7343C33.7056 35.9283 33.2326 33.8786 33.2326 31.5853C33.2326 29.292 33.6913 27.2423 34.6086 25.4363C35.5546 23.6016 36.8303 22.1826 38.4356 21.1793C40.0696 20.1473 41.8756 19.6313 43.8536 19.6313C45.3156 19.6313 46.6773 19.9323 47.9386 20.5343C49.2 21.1363 50.2176 21.8673 50.9916 22.7273V22.2543C50.9916 21.509 51.2353 20.8926 51.7226 20.4053C52.21 19.8893 52.8263 19.6313 53.5716 19.6313ZM44.6706 38.7663C46.5913 38.7663 48.1536 38.0926 49.3576 36.7453C50.5903 35.3693 51.2066 33.6493 51.2066 31.5853C51.2066 29.5213 50.5903 27.8013 49.3576 26.4253C48.1536 25.0493 46.5913 24.3613 44.6706 24.3613C42.75 24.3613 41.1876 25.0493 39.9836 26.4253C38.7796 27.8013 38.1776 29.5213 38.1776 31.5853C38.1776 33.6493 38.7796 35.3693 39.9836 36.7453C41.1876 38.0926 42.75 38.7663 44.6706 38.7663ZM72.5266 19.6313C75.3646 19.6313 77.3282 20.5056 78.4176 22.2543C79.5069 23.9743 80.0516 26.368 80.0516 29.4353V40.4433C80.0516 41.1886 79.8079 41.8193 79.3206 42.3353C78.8332 42.8226 78.2169 43.0663 77.4716 43.0663C76.7262 43.0663 76.1099 42.8226 75.6226 42.3353C75.1352 41.8193 74.8916 41.1886 74.8916 40.4433V29.4353C74.8916 27.8586 74.5762 26.626 73.9456 25.7373C73.3436 24.82 72.2686 24.3613 70.7206 24.3613C69.1152 24.3613 67.8539 24.8486 66.9366 25.8233C66.0479 26.7693 65.6036 27.9733 65.6036 29.4353V40.4433C65.6036 41.1886 65.3599 41.8193 64.8726 42.3353C64.3852 42.8226 63.7689 43.0663 63.0236 43.0663C62.2782 43.0663 61.6619 42.8226 61.1746 42.3353C60.6872 41.8193 60.4436 41.1886 60.4436 40.4433V13.8693C60.4436 13.124 60.6872 12.5076 61.1746 12.0203C61.6619 11.5043 62.2782 11.2463 63.0236 11.2463C63.7689 11.2463 64.3852 11.5043 64.8726 12.0203C65.3599 12.5076 65.6036 13.124 65.6036 13.8693V23.3723C66.3776 22.3403 67.3522 21.466 68.5276 20.7493C69.7316 20.004 71.0646 19.6313 72.5266 19.6313ZM95.4429 38.2073C95.8442 38.2073 96.2025 38.408 96.5179 38.8093C96.8619 39.182 97.0339 39.6836 97.0339 40.3143C97.0339 41.0883 96.6039 41.7476 95.7439 42.2923C94.9125 42.8083 93.9665 43.0663 92.9059 43.0663C91.1285 43.0663 89.6235 42.6936 88.3909 41.9483C87.1869 41.1743 86.5849 39.5546 86.5849 37.0893V25.2213H84.6069C83.9189 25.2213 83.3455 24.992 82.8869 24.5333C82.4282 24.0746 82.1989 23.5013 82.1989 22.8133C82.1989 22.154 82.4282 21.6093 82.8869 21.1793C83.3455 20.7206 83.9189 20.4913 84.6069 20.4913H86.5849V17.7393C86.5849 16.994 86.8285 16.3776 87.3159 15.8903C87.8319 15.3743 88.4625 15.1163 89.2079 15.1163C89.9245 15.1163 90.5265 15.3743 91.0139 15.8903C91.5012 16.3776 91.7449 16.994 91.7449 17.7393V20.4913H94.7979C95.4859 20.4913 96.0592 20.7206 96.5179 21.1793C96.9765 21.638 97.2059 22.2113 97.2059 22.8993C97.2059 23.5586 96.9765 24.1176 96.5179 24.5763C96.0592 25.0063 95.4859 25.2213 94.7979 25.2213H91.7449V36.8743C91.7449 37.4763 91.9025 37.9206 92.2179 38.2073C92.5332 38.4653 92.9632 38.5943 93.5079 38.5943C93.7372 38.5943 94.0525 38.537 94.4539 38.4223C94.7979 38.279 95.1275 38.2073 95.4429 38.2073ZM123.917 12.9663C124.605 12.9663 125.164 13.1956 125.594 13.6543C126.024 14.113 126.239 14.6863 126.239 15.3743V40.4433C126.239 41.1886 125.981 41.8193 125.465 42.3353C124.977 42.8226 124.361 43.0663 123.616 43.0663C123.214 43.0663 122.813 43.009 122.412 42.8943C122.039 42.751 121.767 42.5646 121.595 42.3353L105.814 22.2973V40.6583C105.814 41.3463 105.584 41.9196 105.126 42.3783C104.696 42.837 104.122 43.0663 103.406 43.0663C102.718 43.0663 102.159 42.837 101.729 42.3783C101.299 41.9196 101.084 41.3463 101.084 40.6583V15.5893C101.084 14.844 101.327 14.2276 101.815 13.7403C102.331 13.2243 102.961 12.9663 103.707 12.9663C104.137 12.9663 104.552 13.0523 104.954 13.2243C105.384 13.3963 105.699 13.6256 105.9 13.9123L121.552 33.8643V15.3743C121.552 14.6863 121.767 14.113 122.197 13.6543C122.655 13.1956 123.229 12.9663 123.917 12.9663ZM153.086 31.5853C153.086 33.8786 152.57 35.9426 151.538 37.7773C150.506 39.5833 149.087 40.988 147.281 41.9913C145.503 42.9946 143.54 43.4963 141.39 43.4963C139.211 43.4963 137.233 42.9946 135.456 41.9913C133.678 40.988 132.274 39.5833 131.242 37.7773C130.21 35.9426 129.694 33.8786 129.694 31.5853C129.694 29.292 130.21 27.2423 131.242 25.4363C132.274 23.6016 133.678 22.1826 135.456 21.1793C137.233 20.1473 139.211 19.6313 141.39 19.6313C143.54 19.6313 145.503 20.1473 147.281 21.1793C149.087 22.1826 150.506 23.6016 151.538 25.4363C152.57 27.2423 153.086 29.292 153.086 31.5853ZM147.926 31.5853C147.926 30.1806 147.625 28.9336 147.023 27.8443C146.449 26.7263 145.661 25.8663 144.658 25.2643C143.683 24.6623 142.594 24.3613 141.39 24.3613C140.186 24.3613 139.082 24.6623 138.079 25.2643C137.104 25.8663 136.316 26.7263 135.714 27.8443C135.14 28.9336 134.854 30.1806 134.854 31.5853C134.854 32.99 135.14 34.237 135.714 35.3263C136.316 36.4156 137.104 37.2613 138.079 37.8633C139.082 38.4653 140.186 38.7663 141.39 38.7663C142.594 38.7663 143.683 38.4653 144.658 37.8633C145.661 37.2613 146.449 36.4156 147.023 35.3263C147.625 34.237 147.926 32.99 147.926 31.5853ZM167.201 38.2073C167.602 38.2073 167.96 38.408 168.276 38.8093C168.62 39.182 168.792 39.6836 168.792 40.3143C168.792 41.0883 168.362 41.7476 167.502 42.2923C166.67 42.8083 165.724 43.0663 164.664 43.0663C162.886 43.0663 161.381 42.6936 160.149 41.9483C158.945 41.1743 158.343 39.5546 158.343 37.0893V25.2213H156.365C155.677 25.2213 155.103 24.992 154.645 24.5333C154.186 24.0746 153.957 23.5013 153.957 22.8133C153.957 22.154 154.186 21.6093 154.645 21.1793C155.103 20.7206 155.677 20.4913 156.365 20.4913H158.343V17.7393C158.343 16.994 158.586 16.3776 159.074 15.8903C159.59 15.3743 160.22 15.1163 160.966 15.1163C161.682 15.1163 162.284 15.3743 162.772 15.8903C163.259 16.3776 163.503 16.994 163.503 17.7393V20.4913H166.556C167.244 20.4913 167.817 20.7206 168.276 21.1793C168.734 21.638 168.964 22.2113 168.964 22.8993C168.964 23.5586 168.734 24.1176 168.276 24.5763C167.817 25.0063 167.244 25.2213 166.556 25.2213H163.503V36.8743C163.503 37.4763 163.66 37.9206 163.976 38.2073C164.291 38.4653 164.721 38.5943 165.266 38.5943C165.495 38.5943 165.81 38.537 166.212 38.4223C166.556 38.279 166.885 38.2073 167.201 38.2073ZM192.842 31.0263C192.813 31.7143 192.541 32.2733 192.025 32.7033C191.509 33.1333 190.907 33.3483 190.219 33.3483H176.029C176.373 35.0396 177.161 36.3726 178.394 37.3473C179.626 38.2933 181.017 38.7663 182.565 38.7663C183.74 38.7663 184.657 38.666 185.317 38.4653C185.976 38.236 186.492 38.0066 186.865 37.7773C187.266 37.5193 187.538 37.3473 187.682 37.2613C188.198 37.0033 188.685 36.8743 189.144 36.8743C189.746 36.8743 190.262 37.0893 190.692 37.5193C191.122 37.9493 191.337 38.451 191.337 39.0243C191.337 39.7983 190.935 40.5006 190.133 41.1313C189.33 41.7906 188.255 42.3496 186.908 42.8083C185.56 43.267 184.199 43.4963 182.823 43.4963C180.415 43.4963 178.308 42.9946 176.502 41.9913C174.724 40.988 173.348 39.612 172.374 37.8633C171.399 36.086 170.912 34.0936 170.912 31.8863C170.912 29.421 171.428 27.2566 172.46 25.3933C173.492 23.53 174.853 22.111 176.545 21.1363C178.236 20.133 180.042 19.6313 181.963 19.6313C183.855 19.6313 185.632 20.1473 187.295 21.1793C188.986 22.2113 190.333 23.6016 191.337 25.3503C192.34 27.099 192.842 28.991 192.842 31.0263ZM181.963 24.3613C178.637 24.3613 176.674 25.9236 176.072 29.0483H187.338V28.7473C187.223 27.5433 186.635 26.5113 185.575 25.6513C184.514 24.7913 183.31 24.3613 181.963 24.3613Z" fill="#F53030"/>
<path d="M107.488 61.064C107.528 61.168 107.548 61.264 107.548 61.352C107.548 61.56 107.48 61.732 107.344 61.868C107.208 61.996 107.052 62.06 106.876 62.06C106.732 62.06 106.6 62.016 106.48 61.928C106.368 61.84 106.28 61.72 106.216 61.568L105.592 60.116H102.016L101.392 61.58C101.336 61.732 101.248 61.852 101.128 61.94C101.016 62.02 100.892 62.06 100.756 62.06C100.548 62.06 100.388 62.004 100.276 61.892C100.172 61.78 100.12 61.628 100.12 61.436C100.12 61.364 100.132 61.288 100.156 61.208L103.144 54.032C103.208 53.872 103.304 53.748 103.432 53.66C103.56 53.572 103.704 53.536 103.864 53.552C104.008 53.552 104.14 53.596 104.26 53.684C104.388 53.764 104.48 53.88 104.536 54.032L107.488 61.064ZM105.004 58.736L103.792 55.928L102.604 58.736H105.004ZM111.516 55.46C112.332 55.46 112.896 55.704 113.208 56.192C113.52 56.672 113.676 57.34 113.676 58.196V61.268C113.676 61.476 113.608 61.652 113.472 61.796C113.336 61.932 113.164 62 112.956 62C112.748 62 112.576 61.932 112.44 61.796C112.304 61.652 112.236 61.476 112.236 61.268V58.196C112.236 57.756 112.144 57.412 111.96 57.164C111.776 56.908 111.46 56.78 111.012 56.78C110.548 56.78 110.184 56.916 109.92 57.188C109.656 57.452 109.524 57.788 109.524 58.196V61.268C109.524 61.476 109.456 61.652 109.32 61.796C109.184 61.932 109.012 62 108.804 62C108.596 62 108.424 61.932 108.288 61.796C108.152 61.652 108.084 61.476 108.084 61.268V56.312C108.084 56.104 108.152 55.932 108.288 55.796C108.424 55.652 108.596 55.58 108.804 55.58C109.012 55.58 109.184 55.652 109.32 55.796C109.456 55.932 109.524 56.104 109.524 56.312V56.516C109.74 56.228 110.02 55.98 110.364 55.772C110.716 55.564 111.1 55.46 111.516 55.46ZM121.041 58.796C121.041 59.436 120.897 60.012 120.609 60.524C120.321 61.028 119.925 61.42 119.421 61.7C118.925 61.98 118.377 62.12 117.776 62.12C117.168 62.12 116.616 61.98 116.12 61.7C115.624 61.42 115.232 61.028 114.944 60.524C114.656 60.012 114.512 59.436 114.512 58.796C114.512 58.156 114.656 57.584 114.944 57.08C115.232 56.568 115.624 56.172 116.12 55.892C116.616 55.604 117.168 55.46 117.776 55.46C118.377 55.46 118.925 55.604 119.421 55.892C119.925 56.172 120.321 56.568 120.609 57.08C120.897 57.584 121.041 58.156 121.041 58.796ZM119.6 58.796C119.6 58.404 119.516 58.056 119.349 57.752C119.188 57.44 118.968 57.2 118.688 57.032C118.416 56.864 118.112 56.78 117.776 56.78C117.44 56.78 117.132 56.864 116.852 57.032C116.58 57.2 116.36 57.44 116.192 57.752C116.032 58.056 115.952 58.404 115.952 58.796C115.952 59.188 116.032 59.536 116.192 59.84C116.36 60.144 116.58 60.38 116.852 60.548C117.132 60.716 117.44 60.8 117.776 60.8C118.112 60.8 118.416 60.716 118.688 60.548C118.968 60.38 119.188 60.144 119.349 59.84C119.516 59.536 119.6 59.188 119.6 58.796ZM124.98 60.644C125.092 60.644 125.192 60.7 125.28 60.812C125.376 60.916 125.424 61.056 125.424 61.232C125.424 61.448 125.304 61.632 125.064 61.784C124.832 61.928 124.568 62 124.272 62C123.776 62 123.356 61.896 123.012 61.688C122.676 61.472 122.508 61.02 122.508 60.332V57.02H121.956C121.764 57.02 121.604 56.956 121.476 56.828C121.348 56.7 121.284 56.54 121.284 56.348C121.284 56.164 121.348 56.012 121.476 55.892C121.604 55.764 121.764 55.7 121.956 55.7H122.508V54.932C122.508 54.724 122.576 54.552 122.712 54.416C122.856 54.272 123.032 54.2 123.24 54.2C123.44 54.2 123.608 54.272 123.744 54.416C123.88 54.552 123.948 54.724 123.948 54.932V55.7H124.8C124.992 55.7 125.152 55.764 125.28 55.892C125.408 56.02 125.472 56.18 125.472 56.372C125.472 56.556 125.408 56.712 125.28 56.84C125.152 56.96 124.992 57.02 124.8 57.02H123.948V60.272C123.948 60.44 123.992 60.564 124.08 60.644C124.168 60.716 124.288 60.752 124.44 60.752C124.504 60.752 124.592 60.736 124.704 60.704C124.8 60.664 124.892 60.644 124.98 60.644ZM132.135 58.64C132.127 58.832 132.051 58.988 131.907 59.108C131.763 59.228 131.595 59.288 131.403 59.288H127.443C127.539 59.76 127.759 60.132 128.103 60.404C128.447 60.668 128.835 60.8 129.267 60.8C129.595 60.8 129.851 60.772 130.035 60.716C130.219 60.652 130.363 60.588 130.467 60.524C130.579 60.452 130.655 60.404 130.695 60.38C130.839 60.308 130.975 60.272 131.103 60.272C131.271 60.272 131.415 60.332 131.535 60.452C131.655 60.572 131.715 60.712 131.715 60.872C131.715 61.088 131.603 61.284 131.379 61.46C131.155 61.644 130.855 61.8 130.479 61.928C130.103 62.056 129.723 62.12 129.339 62.12C128.667 62.12 128.079 61.98 127.575 61.7C127.079 61.42 126.695 61.036 126.423 60.548C126.151 60.052 126.015 59.496 126.015 58.88C126.015 58.192 126.159 57.588 126.447 57.068C126.735 56.548 127.115 56.152 127.587 55.88C128.059 55.6 128.563 55.46 129.099 55.46C129.627 55.46 130.123 55.604 130.587 55.892C131.059 56.18 131.435 56.568 131.715 57.056C131.995 57.544 132.135 58.072 132.135 58.64ZM129.099 56.78C128.171 56.78 127.623 57.216 127.455 58.088H130.599V58.004C130.567 57.668 130.403 57.38 130.107 57.14C129.811 56.9 129.475 56.78 129.099 56.78ZM135.607 61.004C135.535 60.908 135.499 60.788 135.499 60.644C135.499 60.436 135.603 60.26 135.811 60.116C135.923 60.044 136.039 60.008 136.159 60.008C136.327 60.008 136.487 60.084 136.639 60.236C136.879 60.484 137.127 60.668 137.383 60.788C137.647 60.908 137.963 60.968 138.331 60.968C138.955 60.944 139.267 60.708 139.267 60.26C139.267 60.028 139.159 59.852 138.943 59.732C138.735 59.612 138.407 59.492 137.959 59.372C137.495 59.244 137.115 59.116 136.819 58.988C136.531 58.86 136.279 58.668 136.063 58.412C135.855 58.148 135.751 57.796 135.751 57.356C135.751 56.972 135.859 56.64 136.075 56.36C136.299 56.072 136.587 55.852 136.939 55.7C137.299 55.54 137.679 55.46 138.079 55.46C138.487 55.46 138.895 55.536 139.303 55.688C139.711 55.84 140.031 56.064 140.263 56.36C140.367 56.488 140.419 56.632 140.419 56.792C140.419 56.976 140.343 57.128 140.191 57.248C140.079 57.336 139.951 57.38 139.807 57.38C139.631 57.38 139.487 57.324 139.375 57.212C139.231 57.036 139.043 56.896 138.811 56.792C138.587 56.688 138.331 56.636 138.043 56.636C137.435 56.636 137.131 56.856 137.131 57.296C137.131 57.472 137.187 57.616 137.299 57.728C137.411 57.832 137.551 57.916 137.719 57.98C137.895 58.036 138.139 58.108 138.451 58.196C138.883 58.316 139.243 58.44 139.531 58.568C139.819 58.696 140.063 58.892 140.263 59.156C140.463 59.42 140.563 59.768 140.563 60.2C140.563 60.592 140.447 60.936 140.215 61.232C139.983 61.52 139.683 61.74 139.315 61.892C138.955 62.044 138.583 62.12 138.199 62.12C137.671 62.12 137.179 62.032 136.723 61.856C136.267 61.68 135.895 61.396 135.607 61.004ZM147.168 58.64C147.16 58.832 147.084 58.988 146.94 59.108C146.796 59.228 146.628 59.288 146.436 59.288H142.476C142.572 59.76 142.792 60.132 143.136 60.404C143.48 60.668 143.868 60.8 144.3 60.8C144.628 60.8 144.884 60.772 145.068 60.716C145.252 60.652 145.396 60.588 145.5 60.524C145.612 60.452 145.688 60.404 145.728 60.38C145.872 60.308 146.008 60.272 146.136 60.272C146.304 60.272 146.448 60.332 146.568 60.452C146.688 60.572 146.748 60.712 146.748 60.872C146.748 61.088 146.636 61.284 146.412 61.46C146.188 61.644 145.888 61.8 145.512 61.928C145.136 62.056 144.756 62.12 144.372 62.12C143.7 62.12 143.112 61.98 142.608 61.7C142.112 61.42 141.728 61.036 141.456 60.548C141.184 60.052 141.048 59.496 141.048 58.88C141.048 58.192 141.192 57.588 141.48 57.068C141.768 56.548 142.148 56.152 142.62 55.88C143.092 55.6 143.596 55.46 144.132 55.46C144.66 55.46 145.156 55.604 145.62 55.892C146.092 56.18 146.468 56.568 146.748 57.056C147.028 57.544 147.168 58.072 147.168 58.64ZM144.132 56.78C143.204 56.78 142.656 57.216 142.488 58.088H145.632V58.004C145.6 57.668 145.436 57.38 145.14 57.14C144.844 56.9 144.508 56.78 144.132 56.78ZM155.413 55.46C156.205 55.46 156.753 55.704 157.057 56.192C157.361 56.672 157.513 57.34 157.513 58.196V61.268C157.513 61.476 157.445 61.652 157.309 61.796C157.173 61.932 157.001 62 156.793 62C156.585 62 156.413 61.932 156.277 61.796C156.141 61.652 156.073 61.476 156.073 61.268V58.196C156.073 57.756 155.985 57.412 155.809 57.164C155.641 56.908 155.341 56.78 154.909 56.78C154.461 56.78 154.109 56.916 153.853 57.188C153.605 57.452 153.481 57.788 153.481 58.196V61.268C153.481 61.476 153.413 61.652 153.277 61.796C153.141 61.932 152.969 62 152.761 62C152.553 62 152.381 61.932 152.245 61.796C152.109 61.652 152.041 61.476 152.041 61.268V58.196C152.041 57.756 151.953 57.412 151.777 57.164C151.609 56.908 151.309 56.78 150.877 56.78C150.429 56.78 150.077 56.916 149.821 57.188C149.573 57.452 149.449 57.788 149.449 58.196V61.268C149.449 61.476 149.381 61.652 149.245 61.796C149.109 61.932 148.937 62 148.729 62C148.521 62 148.349 61.932 148.213 61.796C148.077 61.652 148.009 61.476 148.009 61.268V56.312C148.009 56.104 148.077 55.932 148.213 55.796C148.349 55.652 148.521 55.58 148.729 55.58C148.937 55.58 149.109 55.652 149.245 55.796C149.381 55.932 149.449 56.104 149.449 56.312V56.504C149.665 56.216 149.937 55.972 150.265 55.772C150.601 55.564 150.973 55.46 151.381 55.46C152.389 55.46 153.033 55.9 153.313 56.78C153.497 56.444 153.773 56.14 154.141 55.868C154.517 55.596 154.941 55.46 155.413 55.46ZM165.147 55.46C165.963 55.46 166.527 55.704 166.839 56.192C167.151 56.672 167.307 57.34 167.307 58.196V61.268C167.307 61.476 167.239 61.652 167.103 61.796C166.967 61.932 166.795 62 166.587 62C166.379 62 166.207 61.932 166.071 61.796C165.935 61.652 165.867 61.476 165.867 61.268V58.196C165.867 57.756 165.775 57.412 165.591 57.164C165.407 56.908 165.091 56.78 164.643 56.78C164.179 56.78 163.815 56.916 163.551 57.188C163.287 57.452 163.155 57.788 163.155 58.196V61.268C163.155 61.476 163.087 61.652 162.951 61.796C162.815 61.932 162.643 62 162.435 62C162.227 62 162.055 61.932 161.919 61.796C161.783 61.652 161.715 61.476 161.715 61.268V56.312C161.715 56.104 161.783 55.932 161.919 55.796C162.055 55.652 162.227 55.58 162.435 55.58C162.643 55.58 162.815 55.652 162.951 55.796C163.087 55.932 163.155 56.104 163.155 56.312V56.516C163.371 56.228 163.651 55.98 163.995 55.772C164.347 55.564 164.731 55.46 165.147 55.46ZM174.672 58.796C174.672 59.436 174.528 60.012 174.24 60.524C173.952 61.028 173.556 61.42 173.052 61.7C172.556 61.98 172.008 62.12 171.408 62.12C170.8 62.12 170.248 61.98 169.752 61.7C169.256 61.42 168.864 61.028 168.576 60.524C168.288 60.012 168.144 59.436 168.144 58.796C168.144 58.156 168.288 57.584 168.576 57.08C168.864 56.568 169.256 56.172 169.752 55.892C170.248 55.604 170.8 55.46 171.408 55.46C172.008 55.46 172.556 55.604 173.052 55.892C173.556 56.172 173.952 56.568 174.24 57.08C174.528 57.584 174.672 58.156 174.672 58.796ZM173.232 58.796C173.232 58.404 173.148 58.056 172.98 57.752C172.82 57.44 172.6 57.2 172.32 57.032C172.048 56.864 171.744 56.78 171.408 56.78C171.072 56.78 170.764 56.864 170.484 57.032C170.212 57.2 169.992 57.44 169.824 57.752C169.664 58.056 169.584 58.404 169.584 58.796C169.584 59.188 169.664 59.536 169.824 59.84C169.992 60.144 170.212 60.38 170.484 60.548C170.764 60.716 171.072 60.8 171.408 60.8C171.744 60.8 172.048 60.716 172.32 60.548C172.6 60.38 172.82 60.144 172.98 59.84C173.148 59.536 173.232 59.188 173.232 58.796ZM178.611 60.644C178.723 60.644 178.823 60.7 178.911 60.812C179.007 60.916 179.055 61.056 179.055 61.232C179.055 61.448 178.935 61.632 178.695 61.784C178.463 61.928 178.199 62 177.903 62C177.407 62 176.987 61.896 176.643 61.688C176.307 61.472 176.139 61.02 176.139 60.332V57.02H175.587C175.395 57.02 175.235 56.956 175.107 56.828C174.979 56.7 174.915 56.54 174.915 56.348C174.915 56.164 174.979 56.012 175.107 55.892C175.235 55.764 175.395 55.7 175.587 55.7H176.139V54.932C176.139 54.724 176.207 54.552 176.343 54.416C176.487 54.272 176.663 54.2 176.871 54.2C177.071 54.2 177.239 54.272 177.375 54.416C177.511 54.552 177.579 54.724 177.579 54.932V55.7H178.431C178.623 55.7 178.783 55.764 178.911 55.892C179.039 56.02 179.103 56.18 179.103 56.372C179.103 56.556 179.039 56.712 178.911 56.84C178.783 56.96 178.623 57.02 178.431 57.02H177.579V60.272C177.579 60.44 177.623 60.564 177.711 60.644C177.799 60.716 177.919 60.752 178.071 60.752C178.135 60.752 178.223 60.736 178.335 60.704C178.431 60.664 178.523 60.644 178.611 60.644ZM185.261 55.46C185.469 55.46 185.641 55.528 185.777 55.664C185.913 55.8 185.981 55.976 185.981 56.192V61.268C185.981 61.476 185.913 61.652 185.777 61.796C185.641 61.932 185.469 62 185.261 62C185.053 62 184.881 61.932 184.745 61.796C184.617 61.66 184.549 61.488 184.541 61.28C184.341 61.512 184.069 61.712 183.725 61.88C183.389 62.04 183.033 62.12 182.657 62.12C182.105 62.12 181.605 61.98 181.157 61.7C180.709 61.412 180.353 61.016 180.089 60.512C179.833 60.008 179.705 59.436 179.705 58.796C179.705 58.156 179.833 57.584 180.089 57.08C180.345 56.568 180.693 56.172 181.133 55.892C181.581 55.604 182.073 55.46 182.609 55.46C182.993 55.46 183.353 55.532 183.689 55.676C184.025 55.812 184.309 55.988 184.541 56.204V56.192C184.541 55.984 184.609 55.812 184.745 55.676C184.881 55.532 185.053 55.46 185.261 55.46ZM182.837 60.8C183.357 60.8 183.781 60.612 184.109 60.236C184.437 59.852 184.601 59.372 184.601 58.796C184.601 58.22 184.437 57.74 184.109 57.356C183.781 56.972 183.357 56.78 182.837 56.78C182.325 56.78 181.905 56.972 181.577 57.356C181.249 57.74 181.085 58.22 181.085 58.796C181.085 59.372 181.245 59.852 181.565 60.236C181.893 60.612 182.317 60.8 182.837 60.8ZM190.517 55.46C190.757 55.46 190.957 55.528 191.117 55.664C191.285 55.8 191.369 55.96 191.369 56.144C191.369 56.392 191.305 56.58 191.177 56.708C191.049 56.828 190.897 56.888 190.721 56.888C190.601 56.888 190.465 56.86 190.313 56.804C190.289 56.796 190.233 56.78 190.145 56.756C190.065 56.732 189.977 56.72 189.881 56.72C189.673 56.72 189.473 56.784 189.281 56.912C189.089 57.04 188.929 57.236 188.801 57.5C188.681 57.756 188.621 58.064 188.621 58.424V61.268C188.621 61.476 188.553 61.652 188.417 61.796C188.281 61.932 188.109 62 187.901 62C187.693 62 187.521 61.932 187.385 61.796C187.249 61.652 187.181 61.476 187.181 61.268V56.312C187.181 56.104 187.249 55.932 187.385 55.796C187.521 55.652 187.693 55.58 187.901 55.58C188.109 55.58 188.281 55.652 188.417 55.796C188.553 55.932 188.621 56.104 188.621 56.312V56.468C188.805 56.14 189.069 55.892 189.413 55.724C189.757 55.548 190.125 55.46 190.517 55.46Z" fill="#F53030"/>
</svg>
