<svg width="17" height="17" viewBox="0 0 17 17" fill="none" xmlns="http://www.w3.org/2000/svg">
<path d="M5.66665 0.708344H14.1666C14.9458 0.708344 15.5833 1.34584 15.5833 2.12501V12.0417H14.1666V2.12501H5.66665V0.708344Z" fill="#FEFEFE"/>
<path d="M11.3333 3.54166H3.54167C3.16594 3.54166 2.80561 3.69091 2.53993 3.95659C2.27426 4.22226 2.125 4.5826 2.125 4.95832V14.875C2.125 15.2507 2.27426 15.611 2.53993 15.8767C2.80561 16.1424 3.16594 16.2917 3.54167 16.2917H11.3333C11.7091 16.2917 12.0694 16.1424 12.3351 15.8767C12.6007 15.611 12.75 15.2507 12.75 14.875V4.95832C12.75 4.5826 12.6007 4.22226 12.3351 3.95659C12.0694 3.69091 11.7091 3.54166 11.3333 3.54166Z" fill="#FEFEFE"/>
</svg>
