<svg width="15" height="15" viewBox="0 0 15 15" fill="none" xmlns="http://www.w3.org/2000/svg">
<path fill-rule="evenodd" clip-rule="evenodd" d="M7.50002 0.0625139C5.73429 0.0627515 4.02624 0.691185 2.68142 1.8354C1.33659 2.97961 0.442712 4.56496 0.159683 6.30785C-0.123345 8.05075 0.222939 9.83749 1.13659 11.3485C2.05024 12.8594 3.47166 13.996 5.14658 14.555C5.51845 14.6241 5.67783 14.3956 5.67783 14.1991V12.9347C3.61126 13.3809 3.17564 11.936 3.17564 11.936C3.03032 11.4806 2.72446 11.0935 2.31501 10.8469C1.64033 10.39 2.36814 10.3953 2.36814 10.3953C2.60381 10.4286 2.82874 10.5153 3.02578 10.6488C3.22282 10.7823 3.38673 10.9591 3.50501 11.1656C3.71079 11.5347 4.05472 11.807 4.46118 11.9225C4.86763 12.0381 5.30335 11.9875 5.67252 11.7819C5.70251 11.405 5.86869 11.0518 6.14001 10.7885C4.49314 10.5972 2.75595 9.9597 2.75595 7.1122C2.74391 6.37264 3.01798 5.65702 3.52095 5.1147C3.29329 4.47412 3.31991 3.77062 3.59533 3.14908C3.59533 3.14908 4.21689 2.9472 5.64064 3.90876C6.85799 3.57671 8.14204 3.57671 9.35939 3.90876C10.7778 2.9472 11.3994 3.14908 11.3994 3.14908C11.6748 3.77062 11.7014 4.47412 11.4738 5.1147C11.9767 5.65702 12.2508 6.37264 12.2388 7.1122C12.2388 9.97033 10.5016 10.5972 8.84408 10.7831C9.02163 10.9631 9.15855 11.179 9.24561 11.4164C9.33267 11.6537 9.36784 11.907 9.34876 12.1591V14.1991C9.34876 14.4434 9.48158 14.6294 9.88001 14.555C11.5571 13.9954 12.98 12.8565 13.8935 11.3428C14.807 9.82904 15.1514 8.03937 14.8649 6.29471C14.5784 4.55004 13.6797 2.96451 12.3301 1.82242C10.9804 0.680337 9.26804 0.0564059 7.50002 0.0625139Z" fill="#FEFEFE"/>
</svg>
