<svg width="12" height="14" viewBox="0 0 12 14" fill="none" xmlns="http://www.w3.org/2000/svg">
<path d="M0.857143 12.4286C0.857143 12.7696 0.992602 13.0966 1.23372 13.3377C1.47484 13.5788 1.80186 13.7143 2.14286 13.7143H9.85714C10.1981 13.7143 10.5252 13.5788 10.7663 13.3377C11.0074 13.0966 11.1429 12.7696 11.1429 12.4286V3.42858H0.857143V12.4286ZM8.14286 5.57143C8.14286 5.45777 8.18801 5.34876 8.26838 5.26839C8.34875 5.18801 8.45776 5.14286 8.57143 5.14286C8.68509 5.14286 8.7941 5.18801 8.87447 5.26839C8.95485 5.34876 9 5.45777 9 5.57143V11.5714C9 11.6851 8.95485 11.7941 8.87447 11.8745C8.7941 11.9549 8.68509 12 8.57143 12C8.45776 12 8.34875 11.9549 8.26838 11.8745C8.18801 11.7941 8.14286 11.6851 8.14286 11.5714V5.57143ZM5.57143 5.57143C5.57143 5.45777 5.61658 5.34876 5.69695 5.26839C5.77733 5.18801 5.88634 5.14286 6 5.14286C6.11366 5.14286 6.22267 5.18801 6.30305 5.26839C6.38342 5.34876 6.42857 5.45777 6.42857 5.57143V11.5714C6.42857 11.6851 6.38342 11.7941 6.30305 11.8745C6.22267 11.9549 6.11366 12 6 12C5.88634 12 5.77733 11.9549 5.69695 11.8745C5.61658 11.7941 5.57143 11.6851 5.57143 11.5714V5.57143ZM3 5.57143C3 5.45777 3.04515 5.34876 3.12553 5.26839C3.2059 5.18801 3.31491 5.14286 3.42857 5.14286C3.54224 5.14286 3.65124 5.18801 3.73162 5.26839C3.81199 5.34876 3.85714 5.45777 3.85714 5.57143V11.5714C3.85714 11.6851 3.81199 11.7941 3.73162 11.8745C3.65124 11.9549 3.54224 12 3.42857 12C3.31491 12 3.2059 11.9549 3.12553 11.8745C3.04515 11.7941 3 11.6851 3 11.5714V5.57143ZM11.5714 0.857148H8.35714L8.10536 0.356255C8.05202 0.249169 7.96986 0.159091 7.86812 0.0961543C7.76638 0.0332174 7.6491 -8.11062e-05 7.52946 4.69626e-06H4.46786C4.34849 -0.000454157 4.23142 0.0327202 4.13004 0.0957271C4.02866 0.158734 3.94708 0.249025 3.89464 0.356255L3.64286 0.857148H0.428571C0.314907 0.857148 0.205898 0.9023 0.125526 0.982673C0.0451529 1.06305 0 1.17205 0 1.28572L0 2.14286C0 2.25653 0.0451529 2.36553 0.125526 2.44591C0.205898 2.52628 0.314907 2.57143 0.428571 2.57143H11.5714C11.6851 2.57143 11.7941 2.52628 11.8745 2.44591C11.9548 2.36553 12 2.25653 12 2.14286V1.28572C12 1.17205 11.9548 1.06305 11.8745 0.982673C11.7941 0.9023 11.6851 0.857148 11.5714 0.857148Z" fill="#FEFEFE"/>
</svg>
